<!-- Static icon asset: keep root SVG unpositioned for Next/Image rendering -->
<svg xmlns="http://www.w3.org/2000/svg" viewBox="0 0 100 100">
  <g>
    <path d="M31 22 C34 16, 42 13, 50 13 C58 13, 66 16, 69 22 C66 24, 61 25, 50 25 C39 25, 34 24, 31 22 Z" fill="#4A2D2D" />
    <path d="M24 41 C24 31, 32 24, 42 24 L58 24 C68 24, 76 31, 76 41 C76 50, 72 61, 66 69 C61 76, 55 81, 50 81 C45 81, 39 76, 34 69 C28 61, 24 50, 24 41 Z" fill="#4A2D2D" />
    <path d="M28 41 C28 33, 34 28, 42 28 L58 28 C66 28, 72 33, 72 41 C72 49, 69 59, 63 66 C58 72, 54 76, 50 76 C46 76, 42 72, 37 66 C31 59, 28 49, 28 41 Z" fill="#8A6293" />
    <circle cx="50" cy="54" r="14" fill="#FFFFFF" />
    <path d="M46 61 C46 58, 47 56, 49 54 C51 52, 55 51, 55 48 C55 45, 53 43, 50 43 C47 43, 45 45, 44 48" stroke="#4A2D2D" stroke-width="3" stroke-linecap="round" stroke-linejoin="round" fill="none" />
    <circle cx="50" cy="66" r="2.2" fill="#4A2D2D" />
    <path d="M34 38 C31 39, 30 41, 29 44" stroke="#FFFFFF" stroke-width="2.2" stroke-linecap="round" />
    <path d="M40 32 C42 31, 45 31, 48 31" stroke="#FFFFFF" stroke-width="2.2" stroke-linecap="round" />
  </g>
  <rect width="100" height="100" fill="none" />
</svg>